<?xml version="1.0" encoding="UTF-8" standalone="no"?>
<svg
   xmlns:dc="http://purl.org/dc/elements/1.1/"
   xmlns:cc="http://creativecommons.org/ns#"
   xmlns:rdf="http://www.w3.org/1999/02/22-rdf-syntax-ns#"
   xmlns:svg="http://www.w3.org/2000/svg"
   xmlns="http://www.w3.org/2000/svg"
   xmlns:sodipodi="http://sodipodi.sourceforge.net/DTD/sodipodi-0.dtd"
   xmlns:inkscape="http://www.inkscape.org/namespaces/inkscape"
   version="1.0"
   width="330"
   height="330"
   id="svg2"
   inkscape:version="0.48.5 r10040"
   sodipodi:docname="bandera_square_icon.svg"
   inkscape:export-filename="C:\xampp\htdocs\tdf\bandera_square_icon.png"
   inkscape:export-xdpi="109.09091"
   inkscape:export-ydpi="109.09091">
  <metadata
     id="metadata26">
    <rdf:RDF>
      <cc:Work
         rdf:about="">
        <dc:format>image/svg+xml</dc:format>
        <dc:type
           rdf:resource="http://purl.org/dc/dcmitype/StillImage" />
        <dc:title></dc:title>
      </cc:Work>
    </rdf:RDF>
  </metadata>
  <defs
     id="defs24" />
  <sodipodi:namedview
     pagecolor="#ffffff"
     bordercolor="#666666"
     borderopacity="1"
     objecttolerance="10"
     gridtolerance="10"
     guidetolerance="10"
     inkscape:pageopacity="0"
     inkscape:pageshadow="2"
     inkscape:window-width="1273"
     inkscape:window-height="800"
     id="namedview22"
     showgrid="false"
     showborder="true"
     inkscape:zoom="1.19"
     inkscape:cx="263.49493"
     inkscape:cy="185.52847"
     inkscape:window-x="81"
     inkscape:window-y="49"
     inkscape:window-maximized="0"
     inkscape:current-layer="svg2" />
  <path
     style="fill:#fd9730;fill-opacity:1;stroke:none"
     d="m 181.51261,177.89916 115.12605,56.30252 36.13445,50.42017 0.84034,47.05882 L 0,330 0,34.621849 57.983193,43.445378 142.85714,151.84874 z"
     id="path3806"
     inkscape:connector-curvature="0"
     sodipodi:nodetypes="ccccccccc" />
  <path
     style="fill:#1983dd;fill-opacity:1;stroke:none"
     d="m -0.84033613,-0.25210084 333.61344613,0 0,284.45378084 c -6.7127,-29.58179 -15.10606,-10.84425 -21.81876,-40.42604 L 267.10231,211.64048 149.32975,155.43958 57.643088,53.811164 -0.44569445,35.065357 z"
     id="path3769"
     inkscape:connector-curvature="0"
     sodipodi:nodetypes="ccccccccc" />
  <path
     inkscape:connector-curvature="0"
     id="path3771"
     d="m 332.77311,332.52101 c -221.84874,-1.68067 -110.92437,-0.84034 0,0 z"
     style="fill:#fd9730;fill-opacity:1;stroke:none"
     sodipodi:nodetypes="cc" />
  <text
     xml:space="preserve"
     style="font-size:15.56319618px;font-style:normal;font-variant:normal;font-weight:normal;font-stretch:normal;line-height:125%;letter-spacing:0px;word-spacing:0px;fill:#4400aa;fill-opacity:1;stroke:none;font-family:Calibri;-inkscape-font-specification:Calibri"
     x="216.12247"
     y="114.58925"
     id="text3786"
     sodipodi:linespacing="125%"
     transform="matrix(1.0200762,0.25183409,-0.22811556,0.92400227,0,0)"><tspan
       sodipodi:role="line"
       id="tspan3788"
       x="216.12247"
       y="114.58925"
       style="font-size:224.11003113px;font-style:normal;font-variant:normal;font-weight:normal;font-stretch:normal;fill:#4400aa;font-family:azukifontB;-inkscape-font-specification:azukifontB">?</tspan></text>
  <text
     transform="matrix(-1.0500684,0.03650187,-0.03306402,-0.95116958,0,0)"
     sodipodi:linespacing="125%"
     id="text3790"
     y="-138.85339"
     x="-100.11324"
     style="font-size:15.56319618px;font-style:normal;font-variant:normal;font-weight:normal;font-stretch:normal;line-height:125%;letter-spacing:0px;word-spacing:0px;fill:#4400aa;fill-opacity:1;stroke:none;font-family:Calibri;-inkscape-font-specification:Calibri"
     xml:space="preserve"><tspan
       style="font-size:224.11001587px;font-style:normal;font-variant:normal;font-weight:normal;font-stretch:normal;fill:#4400aa;font-family:azukifontB;-inkscape-font-specification:azukifontB"
       y="-138.85339"
       x="-100.11324"
       id="tspan3792"
       sodipodi:role="line">?</tspan></text>
  <path
     style="fill:#ffffff;stroke:none"
     d="m -0.84033483,34.913422 68.65923283,2.439883 80.982682,109.306755 45.33269,-8.29559 -7.04197,34.15835 121.0339,38.55017 24.64691,72.70852 -39.6111,-47.33374 -111.79132,-55.62933 -82.743163,0 38.290713,-28.30265 -73.940699,-82.956029 z"
     id="path2997"
     inkscape:connector-curvature="0"
     sodipodi:nodetypes="ccccccccccccc" />
  <g
     transform="translate(14.918698,58.134651)"
     style="fill:#ffffff"
     id="g10">
    <path
       inkscape:connector-curvature="0"
       id="path12"
       d="m 215.72365,24.746156 7.38918,-4.295492 -1.73444,-8.476506 6.29949,5.822736 7.38918,-4.295493 -3.49486,7.892718 6.29947,5.82273 -8.45937,-0.943454 -3.49483,7.892706 -1.73445,-8.476484 z" />
    <path
       inkscape:connector-curvature="0"
       id="path14"
       d="m 202.38378,73.82633 7.38918,-4.295492 -1.73444,-8.476507 6.2995,5.822736 7.38918,-4.295493 -3.49487,7.892719 6.29947,5.822729 -8.45937,-0.943454 -3.49482,7.892707 -1.73445,-8.476485 z" />
    <path
       inkscape:connector-curvature="0"
       id="path16"
       d="m 270.00056,134.1013 7.38918,-4.29549 -1.73444,-8.47651 6.29949,5.82274 7.38918,-4.29549 -3.49486,7.89271 6.29947,5.82273 -8.45937,-0.94345 -3.49483,7.89271 -1.73445,-8.47649 z" />
    <path
       inkscape:connector-curvature="0"
       id="path18"
       d="m 268.03257,31.422021 7.38918,-4.295492 -1.73444,-8.476506 6.29949,5.822736 7.38918,-4.295492 -3.49486,7.892717 6.29947,5.82273 -8.45937,-0.943454 -3.49483,7.892706 -1.73445,-8.476484 z" />
    <path
       inkscape:connector-curvature="0"
       id="path20"
       d="m 269.32746,65.378053 3.88165,-2.256487 -0.91113,-4.452836 3.30922,3.058772 3.88165,-2.256488 -1.83591,4.146163 3.30921,3.05877 -4.44383,-0.495612 -1.83589,4.146159 -0.91113,-4.452825 z" />
  </g>
</svg>
