<?xml version="1.0" encoding="UTF-8" standalone="no"?>
<!-- Created with Inkscape (http://www.inkscape.org/) -->

<svg
   xmlns:dc="http://purl.org/dc/elements/1.1/"
   xmlns:cc="http://creativecommons.org/ns#"
   xmlns:rdf="http://www.w3.org/1999/02/22-rdf-syntax-ns#"
   xmlns:svg="http://www.w3.org/2000/svg"
   xmlns="http://www.w3.org/2000/svg"
   xmlns:sodipodi="http://sodipodi.sourceforge.net/DTD/sodipodi-0.dtd"
   xmlns:inkscape="http://www.inkscape.org/namespaces/inkscape"
   width="297mm"
   height="210mm"
   id="svg2995"
   version="1.1"
   inkscape:version="0.48.5 r10040"
   sodipodi:docname="banner_square.svg"
   inkscape:export-filename="C:\xampp\htdocs\tdf\misc_sources\banner_square.png"
   inkscape:export-xdpi="90"
   inkscape:export-ydpi="90">
  <defs
     id="defs2997" />
  <sodipodi:namedview
     inkscape:document-units="mm"
     pagecolor="#ffffff"
     bordercolor="#666666"
     borderopacity="1.0"
     inkscape:pageopacity="0.0"
     inkscape:pageshadow="2"
     inkscape:zoom="0.86831672"
     inkscape:cx="358.4259"
     inkscape:cy="513.79641"
     inkscape:current-layer="layer1"
     id="namedview2999"
     showgrid="false"
     inkscape:window-width="1303"
     inkscape:window-height="730"
     inkscape:window-x="116"
     inkscape:window-y="115"
     inkscape:window-maximized="0" />
  <metadata
     id="metadata3001">
    <rdf:RDF>
      <cc:Work
         rdf:about="">
        <dc:format>image/svg+xml</dc:format>
        <dc:type
           rdf:resource="http://purl.org/dc/dcmitype/StillImage" />
        <dc:title></dc:title>
      </cc:Work>
    </rdf:RDF>
  </metadata>
  <g
     inkscape:label="Layer 1"
     inkscape:groupmode="layer"
     id="layer1">
    <g
       id="g3227"
       transform="matrix(1.0004981,0,0,1.0050762,-2.0006522,-0.5254431)">
      <path
         style="fill:#fd9730;fill-opacity:1;stroke:none"
         d="m 274.01642,267.71188 172.32704,84.59596 54.71698,75.75758 0,69.44444 -498.7421147,0 L 1.3093553,50.130805 89.110759,65.691695 216.15479,228.57047 z"
         id="path3806-4-5"
         inkscape:connector-curvature="0"
         sodipodi:nodetypes="ccccccccc" />
      <path
         style="fill:#1983dd;fill-opacity:1;stroke:none"
         d="m 1.3558153,0.03512476 499.0757247,0 0,427.39898524 c -10.048,-44.44739 -32.6595,-60.74115 -32.6595,-60.74115 L 402.13181,318.40907 225.84334,233.96579 88.601679,81.26654 1.3558153,53.100505 z"
         id="path3769-0-2"
         inkscape:connector-curvature="0"
         sodipodi:nodetypes="ccccccccc" />
    </g>
    <path
       sodipodi:nodetypes="cc"
       style="fill:#fd9730;fill-opacity:1;stroke:none"
       d="m 498.43154,502.03512 c -332.07548,-2.52525 -166.03778,-1.26263 0,0 z"
       id="path3771-9-7"
       inkscape:connector-curvature="0" />
    <path
       sodipodi:nodetypes="ccccccccccccc"
       inkscape:connector-curvature="0"
       id="path2997-4-6"
       d="m -0.9395347,54.872205 102.7729347,3.66598 121.21936,164.236155 67.85646,-12.46433 -10.54081,51.32378 181.17023,57.92261 36.8929,109.24639 -59.29214,-71.12014 -167.33541,-83.58447 -123.85454,0 L 205.2651,231.57273 94.586579,106.9292 z"
       style="fill:#ffffff;stroke:none" />
    <g
       transform="matrix(1.4949748,0,0,1.5025253,22.043995,90.33852)"
       style="fill:#ffffff"
       id="g10-5-1">
      <path
         inkscape:connector-curvature="0"
         id="path12-5-4"
         d="m 215.72365,24.746156 7.38918,-4.295492 -1.73444,-8.476506 6.29949,5.822736 7.38918,-4.295493 -3.49486,7.892718 6.29947,5.82273 -8.45937,-0.943454 -3.49483,7.892706 -1.73445,-8.476484 z" />
      <path
         inkscape:connector-curvature="0"
         id="path14-1-2"
         d="m 202.38378,73.82633 7.38918,-4.295492 -1.73444,-8.476507 6.2995,5.822736 7.38918,-4.295493 -3.49487,7.892719 6.29947,5.822729 -8.45937,-0.943454 -3.49482,7.892707 -1.73445,-8.476485 z" />
      <path
         inkscape:connector-curvature="0"
         id="path16-7-3"
         d="m 270.00056,134.1013 7.38918,-4.29549 -1.73444,-8.47651 6.29949,5.82274 7.38918,-4.29549 -3.49486,7.89271 6.29947,5.82273 -8.45937,-0.94345 -3.49483,7.89271 -1.73445,-8.47649 z" />
      <path
         inkscape:connector-curvature="0"
         id="path18-1-2"
         d="m 268.03257,31.422021 7.38918,-4.295492 -1.73444,-8.476506 6.29949,5.822736 7.38918,-4.295492 -3.49486,7.892717 6.29947,5.82273 -8.45937,-0.943454 -3.49483,7.892706 -1.73445,-8.476484 z" />
      <path
         inkscape:connector-curvature="0"
         id="path20-1-2"
         d="m 269.32746,65.378053 3.88165,-2.256487 -0.91113,-4.452836 3.30922,3.058772 3.88165,-2.256488 -1.83591,4.146163 3.30921,3.05877 -4.44383,-0.495612 -1.83589,4.146159 -0.91113,-4.452825 z" />
    </g>
    <text
       xml:space="preserve"
       style="font-size:9.64079857px;font-style:normal;font-variant:normal;font-weight:normal;font-stretch:normal;line-height:85.00000238%;letter-spacing:0px;word-spacing:0px;fill:#1a1a1a;fill-opacity:1;stroke:none;font-family:Calibri;-inkscape-font-specification:Calibri"
       x="158.4855"
       y="397.35645"
       id="text3082-1"
       sodipodi:linespacing="85.000002%"
       transform="matrix(0.97302313,-0.19968991,0.19679486,0.98733732,0,0)"><tspan
         sodipodi:role="line"
         id="tspan3084-6"
         x="158.4855"
         y="397.35645"
         style="font-size:61.70110703px;font-style:normal;font-variant:normal;font-weight:normal;font-stretch:normal;text-align:center;line-height:85.00000238%;text-anchor:middle;fill:#1a1a1a;font-family:Open Sans;-inkscape-font-specification:Open Sans"><tspan
           style="font-size:38.56319427px;font-style:normal;font-variant:normal;font-weight:normal;font-stretch:normal;line-height:85.00000238%;fill:#1a1a1a;font-family:Open Sans;-inkscape-font-specification:Open Sans"
           id="tspan3090-8">¿</tspan><tspan
           style="font-size:46.27582932px;font-style:normal;font-variant:normal;font-weight:normal;font-stretch:normal;line-height:85.00000238%;fill:#1a1a1a;font-family:Open Sans;-inkscape-font-specification:Open Sans"
           id="tspan3094-5">Que hacer</tspan></tspan><tspan
         sodipodi:role="line"
         x="158.4855"
         y="432.0014"
         style="font-size:38.56319427px;font-style:normal;font-variant:normal;font-weight:normal;font-stretch:normal;text-align:center;line-height:85.00000238%;text-anchor:middle;fill:#1a1a1a;font-family:Open Sans;-inkscape-font-specification:Open Sans"
         id="tspan3086-7">en</tspan><tspan
         sodipodi:role="line"
         x="158.4855"
         y="478.84863"
         style="font-size:61.70110703px;font-style:normal;font-variant:normal;font-weight:normal;font-stretch:normal;text-align:center;line-height:85.00000238%;text-anchor:middle;fill:#1a1a1a;font-family:Open Sans;-inkscape-font-specification:Open Sans"
         id="tspan3088-6">Tierra del Fuego<tspan
   style="font-size:38.56319427px;font-style:normal;font-variant:normal;font-weight:normal;font-stretch:normal;line-height:85.00000238%;fill:#1a1a1a;font-family:Open Sans;-inkscape-font-specification:Open Sans"
   id="tspan3092-1">?</tspan></tspan></text>
  </g>
</svg>
