<?xml version="1.0" encoding="UTF-8" standalone="no"?>
<!-- Created with Inkscape (http://www.inkscape.org/) -->

<svg
   xmlns:dc="http://purl.org/dc/elements/1.1/"
   xmlns:cc="http://creativecommons.org/ns#"
   xmlns:rdf="http://www.w3.org/1999/02/22-rdf-syntax-ns#"
   xmlns:svg="http://www.w3.org/2000/svg"
   xmlns="http://www.w3.org/2000/svg"
   xmlns:sodipodi="http://sodipodi.sourceforge.net/DTD/sodipodi-0.dtd"
   xmlns:inkscape="http://www.inkscape.org/namespaces/inkscape"
   width="744.09448819"
   height="1052.3622047"
   id="svg2"
   version="1.1"
   inkscape:version="0.48.5 r10040"
   sodipodi:docname="señal-fuertes-vientos.svg">
  <defs
     id="defs4" />
  <sodipodi:namedview
     id="base"
     pagecolor="#ffffff"
     bordercolor="#666666"
     borderopacity="1.0"
     inkscape:pageopacity="0.0"
     inkscape:pageshadow="2"
     inkscape:zoom="0.5"
     inkscape:cx="570.72633"
     inkscape:cy="577.17176"
     inkscape:document-units="px"
     inkscape:current-layer="layer1"
     showgrid="false"
     inkscape:window-width="1600"
     inkscape:window-height="837"
     inkscape:window-x="-4"
     inkscape:window-y="40"
     inkscape:window-maximized="1" />
  <metadata
     id="metadata7">
    <rdf:RDF>
      <cc:Work
         rdf:about="">
        <dc:format>image/svg+xml</dc:format>
        <dc:type
           rdf:resource="http://purl.org/dc/dcmitype/StillImage" />
        <dc:title></dc:title>
      </cc:Work>
    </rdf:RDF>
  </metadata>
  <g
     inkscape:label="Layer 1"
     inkscape:groupmode="layer"
     id="layer1">
    <g
       id="g3776"
       transform="matrix(0.98550696,0,0,0.99088951,-12.013901,114.93678)"
       style="fill:#ffbf00;fill-opacity:1">
      <path
         sodipodi:nodetypes="ccccccccc"
         inkscape:connector-curvature="0"
         id="path3004"
         d="m 357,-28.637817 c 14.6146,-9.135351 29.7425,-13.651025 47,1 L 831,390.36218 c 21.0743,22.80816 10.1378,36.88606 3,52 l -415,418 c -15.9364,6.68585 -28.4643,21.55224 -57,-2 l -417,-408 c -20.80817,-22.73197 -17.73954,-42.51833 -4,-60 z"
         style="fill:#ffbf00;fill-opacity:1;stroke:none" />
      <path
         sodipodi:nodetypes="ccccccccc"
         inkscape:connector-curvature="0"
         id="path3006"
         d="M -35,396.36218 354,4.3621826 c 19.51363,-22.5954166 34.77251,-15.4075856 49,-1 L 792,385.36218 c 18.23731,17.5144 38.60271,34.70959 5,60 l -378,380 c -15.85675,22.68503 -34.17089,29.8066 -58,2 l -399,-388 c -11.043534,-11.32245 -17.56677,-23.77497 3,-43 z"
         style="fill:#ffbf00;fill-opacity:1;stroke:#000000;stroke-width:15;stroke-linecap:butt;stroke-linejoin:miter;stroke-miterlimit:4;stroke-opacity:1;stroke-dasharray:none" />
    </g>
    <g
       id="g3821"
       transform="matrix(0.98550696,0,0,0.99088951,4.7397176,-34.687536)">
      <path
         sodipodi:nodetypes="ccccccccccsccccccscscccccccc"
         inkscape:connector-curvature="0"
         id="path3780"
         d="m 181,787.36218 356,-5 c 0,0 -191.5,-33.5 -229.5,-65.5 -50.5,-108 -25.5,-195 1.5,-245.5 9.44431,-12.65363 -3,38 42,54 9.19003,-1.96929 31.60472,-3.25742 50.09741,-7.83391 C 418.97837,519.99459 449,530.36218 449,530.36218 c 0,0 -31.5,-47.5 -53.5,-27.5 -36.5,15 -73.5,-32.5 -65.5,-38.5 4,-21.5 26.39324,6.4151 40.5,17 14.60676,-1.4151 31.2808,-0.40517 49.5,4.5 13,3.5 21,-2 21,-2 0,0 -85,-13.5 -79,-44.5 1.5,-18.5 81,25.5 150,6.5 -18,-6 -64.41302,-15.49827 -74,-19 -80.58698,7.49827 -50,-28.5 1,-20.5 51,2 74,-10 74,-10 -30.84923,-0.0485 -46.15787,-5.81199 -71.36351,-7.51735 -16.87203,-1.14154 -43.97388,0.0872 -61.63649,4.01735 -1.5,-4 18.5,-10 31.5,-15 13,-5 28.5,-16.5 28.5,-16.5 l 88.5,-13 c 0,0 -118,-2 -157,17 -32.51673,15.2953 -27.35479,30.81637 -48.5,39 -4.52712,6.15311 -9.5221,12.07228 -11.5,19.5 -33.87455,75.50145 -88.07525,132.99239 -21.5,297.5 -5.58657,35.40309 -21.49007,27.47503 -33,38 z"
         style="fill:#000000;stroke:none" />
      <g
         transform="translate(-16,154)"
         id="g3812">
        <path
           style="fill:none;stroke:#000000;stroke-width:4;stroke-linecap:butt;stroke-linejoin:miter;stroke-opacity:1"
           d="m 551,241.86218 42,-0.5"
           id="path3782"
           inkscape:connector-curvature="0" />
        <path
           style="fill:none;stroke:#000000;stroke-width:4;stroke-linecap:butt;stroke-linejoin:miter;stroke-opacity:1"
           d="m 558,290.11218 34.56448,-0.5"
           id="path3782-1"
           inkscape:connector-curvature="0" />
        <path
           inkscape:connector-curvature="0"
           id="path3802"
           d="m 612,289.11218 33.87883,-0.5"
           style="fill:none;stroke:#000000;stroke-width:4;stroke-linecap:butt;stroke-linejoin:miter;stroke-opacity:1" />
        <path
           style="fill:none;stroke:#000000;stroke-width:4;stroke-linecap:butt;stroke-linejoin:miter;stroke-opacity:1"
           d="m 569.00248,324.24479 33.87387,-0.76522"
           id="path3804"
           inkscape:connector-curvature="0" />
        <path
           inkscape:connector-curvature="0"
           id="path3806"
           d="m 471.54929,331.25459 73.32977,-3.78482"
           style="fill:none;stroke:#000000;stroke-width:4;stroke-linecap:butt;stroke-linejoin:miter;stroke-opacity:1" />
        <path
           style="fill:none;stroke:#000000;stroke-width:4;stroke-linecap:butt;stroke-linejoin:miter;stroke-opacity:1"
           d="m 624.54929,321.75459 73.32977,-3.78482"
           id="path3808"
           inkscape:connector-curvature="0" />
        <path
           inkscape:connector-curvature="0"
           id="path3810"
           d="M 486.20233,374.69951 725.07288,362.02485"
           style="fill:none;stroke:#000000;stroke-width:4;stroke-linecap:butt;stroke-linejoin:miter;stroke-opacity:1" />
      </g>
    </g>
  </g>
</svg>
